<?xml version="1.0" standalone="no"?><!DOCTYPE svg PUBLIC "-//W3C//DTD SVG 1.1//EN" "http://www.w3.org/Graphics/SVG/1.1/DTD/svg11.dtd"><svg t="1641540058165" class="icon" viewBox="0 0 1024 1024" version="1.1" xmlns="http://www.w3.org/2000/svg" p-id="2159" xmlns:xlink="http://www.w3.org/1999/xlink" width="200" height="200"><defs><style type="text/css"></style></defs><path d="M512 1024a512 512 0 1 1 512-512 512.582 512.582 0 0 1-512 512m0-950.924A438.924 438.924 0 1 0 950.854 512 439.366 439.366 0 0 0 512 73.076m1.21 737.513a327.4 327.4 0 0 1-259.328-126.37 36.538 36.538 0 1 1 57.6-44.917 256.14 256.14 0 0 0 404.76-1.862 36.608 36.608 0 1 1 57.995 44.684A327.028 327.028 0 0 1 513.21 810.589M348.625 515.724a54.947 54.947 0 0 1-54.853-54.924v-73.076a54.854 54.854 0 1 1 109.707 0V460.8a54.947 54.947 0 0 1-54.854 54.924m329.147 0a54.947 54.947 0 0 1-54.854-54.924v-73.076a54.854 54.854 0 1 1 109.707 0V460.8a54.947 54.947 0 0 1-54.853 54.924" p-id="2160"></path></svg>