<?xml version="1.0" standalone="no"?><!DOCTYPE svg PUBLIC "-//W3C//DTD SVG 1.1//EN" "http://www.w3.org/Graphics/SVG/1.1/DTD/svg11.dtd"><svg t="1641540047652" class="icon" viewBox="0 0 1024 1024" version="1.1" xmlns="http://www.w3.org/2000/svg" p-id="2016" xmlns:xlink="http://www.w3.org/1999/xlink" width="200" height="200"><defs><style type="text/css"></style></defs><path d="M512 61.44C263.168 61.44 61.44 263.168 61.44 512S263.168 962.56 512 962.56 962.56 760.832 962.56 512 760.832 61.44 512 61.44z" fill="#FFFFFF" p-id="2017"></path><path d="M512 61.44c248.832 0 450.56 201.728 450.56 450.56S760.832 962.56 512 962.56 61.44 760.832 61.44 512 263.168 61.44 512 61.44z m0 61.44c-214.897 0-389.12 174.223-389.12 389.12S297.103 901.12 512 901.12 901.12 726.897 901.12 512 726.897 122.88 512 122.88z m174.08 573.44a30.72 30.72 0 0 1 0 61.44H337.92a30.72 30.72 0 0 1 0-61.44h348.16z m-358.4-204.8a61.44 61.44 0 1 1 0 122.88 61.44 61.44 0 0 1 0-122.88z m184.32 0a61.44 61.44 0 1 1 0 122.88 61.44 61.44 0 0 1 0-122.88z m184.32 0a61.44 61.44 0 1 1 0 122.88 61.44 61.44 0 0 1 0-122.88zM327.68 307.2a61.44 61.44 0 1 1 0 122.88 61.44 61.44 0 0 1 0-122.88z m184.32 0a61.44 61.44 0 1 1 0 122.88 61.44 61.44 0 0 1 0-122.88z m184.32 0a61.44 61.44 0 1 1 0 122.88 61.44 61.44 0 0 1 0-122.88z" fill="#131415" p-id="2018"></path></svg>