<?xml version="1.0" standalone="no"?><!DOCTYPE svg PUBLIC "-//W3C//DTD SVG 1.1//EN" "http://www.w3.org/Graphics/SVG/1.1/DTD/svg11.dtd"><svg t="1641539899488" class="icon" viewBox="0 0 1024 1024" version="1.1" xmlns="http://www.w3.org/2000/svg" p-id="3684" xmlns:xlink="http://www.w3.org/1999/xlink" width="200" height="200"><defs><style type="text/css"></style></defs><path d="M509.286 1017.958C228.66 1017.958 0.358 789.606 0.358 509.03 0.358 228.403 228.66 0.102 509.286 0.102s508.928 228.301 508.928 508.928c0 280.576-228.3 508.928-508.928 508.928z m0-943.718c-239.718 0-434.79 195.072-434.79 434.79s195.072 434.79 434.79 434.79 434.79-195.071 434.79-434.79c0-239.77-195.071-434.79-434.79-434.79z" p-id="3685"></path><path d="M618.752 781.107a37.069 37.069 0 0 1-33.434-53.043c0.512-1.126 53.71-114.176 51.456-219.546-2.304-105.881-60.262-215.961-60.825-217.088a37.069 37.069 0 1 1 65.485-34.816c2.713 5.12 66.816 126.976 69.478 250.317 2.611 123.392-56.218 247.808-58.675 253.082a37.069 37.069 0 0 1-33.485 21.094z m-139.06-74.291a36.966 36.966 0 0 1-31.18-57.14c0.205-0.255 28.98-47.257 28.98-121.138s-32.257-115.866-32.615-116.224a37.12 37.12 0 0 1 57.6-46.695c2.048 2.458 49.152 61.85 49.152 162.919 0 96.768-39.066 158.72-40.704 161.28a37.069 37.069 0 0 1-31.232 16.998zM346.83 627.661A37.069 37.069 0 0 1 312.78 576s6.605-16.384 6.605-36.25c0-18.636-7.27-32.87-7.373-32.972a37.274 37.274 0 0 1 15.257-50.023 36.864 36.864 0 0 1 49.87 14.541c1.689 3.072 16.383 30.72 16.383 68.454 0 35.021-11.264 62.464-12.595 65.434a37.069 37.069 0 0 1-34.1 22.477z" p-id="3686"></path></svg>