<?xml version="1.0" standalone="no"?><!DOCTYPE svg PUBLIC "-//W3C//DTD SVG 1.1//EN" "http://www.w3.org/Graphics/SVG/1.1/DTD/svg11.dtd"><svg t="1641540065397" class="icon" viewBox="0 0 1024 1024" version="1.1" xmlns="http://www.w3.org/2000/svg" p-id="2301" xmlns:xlink="http://www.w3.org/1999/xlink" width="200" height="200"><defs><style type="text/css"></style></defs><path d="M512 0.651C229.581 0.651 0.644 229.588 0.644 512.007c0 282.42 228.937 511.343 511.356 511.343s511.356-228.923 511.356-511.343C1023.356 229.588 794.419 0.651 512 0.651z m0 946.008c-240.048 0-434.653-194.604-434.653-434.652C77.347 271.959 271.952 77.354 512 77.354s434.652 194.605 434.652 434.652c0 240.05-194.604 434.653-434.652 434.653z" p-id="2302"></path><path d="M754.895 473.655H550.352V269.113c0-21.174-17.153-38.352-38.352-38.352-21.199 0-38.353 17.178-38.353 38.352v204.542H269.106c-21.198 0-38.352 17.178-38.352 38.352 0 21.173 17.154 38.352 38.352 38.352h204.542V754.9c0 21.175 17.154 38.353 38.353 38.353 21.198 0 38.352-17.178 38.352-38.353V550.358h204.543c21.198 0 38.35-17.179 38.35-38.352-0.002-21.173-17.153-38.351-38.351-38.351z" p-id="2303"></path></svg>